<?xml version="1.0" encoding="UTF-8" standalone="no"?><!DOCTYPE svg PUBLIC "-//W3C//DTD SVG 1.1//EN" "http://www.w3.org/Graphics/SVG/1.1/DTD/svg11.dtd"><svg width="100%" height="100%" viewBox="0 0 1024 1024" version="1.1" xmlns="http://www.w3.org/2000/svg" xmlns:xlink="http://www.w3.org/1999/xlink" xml:space="preserve" xmlns:serif="http://www.serif.com/" style="fill-rule:evenodd;clip-rule:evenodd;stroke-linejoin:round;stroke-miterlimit:2;"><g id="背景"><path d="M19.5,0l1004.499,0c0.746,2.239 0,2.31 0,29.5l0,994.499c-1.103,1.103 -1.414,0 -19.499,0l-1004.5,0c-1.061,-1.06 0,-2.999 0,-4.499l0,-1019.5c1.103,-1.103 1.414,0 19.5,0Z" style="fill:#020611;"/><path d="M675.672,883.002c-0.091,-40.113 0.117,-128.355 -0.096,-130.571c-0.234,-2.423 -0.576,-2.604 -64.247,-63.895c-97.527,-93.88 -97.644,-94.96 -100.057,-94.37c-1.816,0.444 -94.629,90.621 -102.801,98.561c-58.506,56.844 -59.523,56.436 -60.025,59.712c-0.348,2.274 -0.118,62.651 -0.098,68.099c0.021,5.431 0.257,67.404 0.023,67.885c-0.397,0.817 -1.233,2.01 -10.507,-4.299c-3.631,-2.47 -85.774,-52.959 -87.494,-54.124c-19.448,-13.166 -22.783,-10.183 -31.228,-24.421c-9.831,-16.574 -83.8,-138.592 -85.202,-140.801c-5.92,-9.329 -5.842,-9.591 -5.848,-20.605c-0.009,-17.886 -0.118,-223.239 -0.085,-223.572c0.363,-3.671 25.2,-34.564 39.774,-54.517c5.059,-6.927 34.447,-47.161 64.56,-85.603c11.512,-14.696 18.67,-27.53 23.445,-27.614c4.546,-0.08 83.019,-0.009 90.238,-0.002c24.2,0.022 24.41,-1.022 26.187,0.088c1.177,0.735 1.069,1.656 -16.966,28.442c-63.134,93.769 -63.681,93.34 -68.648,101.815c-3.646,6.221 3.036,1.436 23.445,-3.694c57.388,-14.424 56.052,-18.365 136.187,-49.932c5.656,-2.228 4.384,2.374 29.859,57.9c35.053,76.403 34.736,78.428 36.503,77.371c1.274,-0.763 58.267,-127.89 60.945,-133.257c2.13,-4.268 8.321,-0.271 18.526,3.635c7.4,2.832 88.899,34.024 92.309,35.9c2.91,1.601 -0.079,2.537 -28.674,30.028c-32.751,31.487 -121.11,114.722 -140.26,133.301c-3.974,3.855 -4.721,1.519 -8.753,-2.312c-4.33,-4.113 -35.189,-33.425 -54.231,-51.294c-53.394,-50.104 -53.246,-50.864 -55.064,-50.663c-2.63,0.29 -210.912,205.773 -212.45,205.723c-1.156,-0.038 -1.178,-6.452 -1.18,-7.022c-0.621,-183.1 -0.688,-183.092 -0.542,-187.482c0.2,-5.988 14.929,-22.626 24.642,-36.584c7.861,-11.295 59.291,-81.084 67.978,-93.515c4.824,-6.903 6.384,-5.306 27.154,-5.21c19.918,0.093 21.511,1.276 25.686,-5.35c13.014,-20.649 23.598,-33.804 22.536,-35.515c-1.215,-1.958 -1.767,-1.224 -28.792,-0.889c-52.005,0.645 -61.507,-0.525 -63.713,0.989c-2.297,1.576 -112.244,148.526 -117.529,155.745c-1.464,2 -1.594,2.229 -1.518,77.276c0.111,109.238 -0.315,150.868 0.176,152.931c0.583,2.449 60.272,99.823 69.414,115.449c5.971,10.205 22.2,36.809 23.407,38.02c2.132,2.137 102.083,63.633 102.179,63.64c3.051,0.216 2.304,-1.771 2.081,-38.174c-0.035,-5.644 -1.916,-4.874 -13.385,-12.035c-34.535,-21.565 -39.147,-21.335 -35.743,-25.371c2.691,-3.19 127.507,-122.883 138.621,-133.541c84.583,-81.111 84.51,-81.908 86.226,-81.632c0.926,0.149 223.964,215.113 224.618,216.631c0.79,1.834 -0.579,1.786 -38.908,25.648c-9.169,5.708 -11.143,5.046 -11.185,11.699c-0.221,35.567 -1.097,37.87 1.8,37.18c0.081,-0.019 28.986,-17.957 35.884,-22.348c4.764,-3.033 8.252,-4.93 10.2,-6.14c4.397,-2.73 53.1,-32.969 54.864,-34.279c4.557,-3.383 43.133,-70.42 82.849,-135.22c10.458,-17.063 11.829,-16.88 11.841,-26.648c0.01,-8.554 -0.033,-8.543 -0.067,-106.923c-0.039,-113.77 0.095,-114.103 -1.528,-116.36c-21.08,-29.324 -22.12,-28.459 -43.346,-57.691c-4.806,-6.618 -33.814,-46.568 -61.515,-81.658c-7.913,-10.023 -9.067,-14.979 -12.047,-10.054c-2.87,4.745 -50.975,81.95 -50.994,81.963c-1.941,1.405 -2.13,-0.431 -27.972,-42.21c-2.76,-4.462 -34.388,-55.596 -34.468,-55.791c-1.337,-3.272 0.837,-2.644 4.431,-2.606c14.884,0.159 112.181,-0.399 113.591,0.359c2.142,1.151 54.717,72.264 59.852,78.626c3.896,4.827 55.865,74.339 60.707,80.816c5.271,7.05 4.952,7.418 4.865,16.294c-0.14,14.217 -0.083,33.78 -0.065,54.154c0.152,171.979 -0.38,171.979 -0.413,172.105c-0.665,2.554 -26.149,43.764 -28.481,47.535c-8.414,13.607 -64.681,107.512 -66.04,109.136c-3.523,4.21 -123.259,77.974 -124.401,77.612c-1.073,-0.34 -0.624,-0.733 -1.038,-6.477Z" style="fill:#1bf3fb;"/><path d="M490.126,210.809c3.973,-35.68 11.207,-86.887 12.068,-88.436c0.232,-0.418 53.399,-72.063 53.687,-72.306c2.023,-1.709 2.332,0.08 30.913,22.793c19.335,15.365 19.828,15.175 20.123,17.277c0.512,3.653 -1.226,3.205 -30.28,34.77c-22.874,24.85 -23.1,24.784 -23.958,27.578c-1.323,4.307 -10.016,45.131 -13.785,59.809c-1.522,5.925 5.835,-0.19 11.505,-3.784c38.855,-24.631 38.849,-25.063 42.821,-25.157c3.171,-0.075 111.132,-0.086 120.795,-0.087c9.54,-0.001 11.534,-1.634 11.097,1.266c-0.169,1.121 -100.67,60.837 -101.224,62.554c-0.743,2.305 4.402,9.671 57.532,94.716c2.344,3.752 3.929,5.834 2.062,6.664c-0.495,0.22 -11.366,-5.026 -37.574,-15.182c-79.815,-30.929 -80.232,-31.69 -81.735,-30.519c-1.733,1.351 -51.182,111.285 -51.786,111.661c-1.354,0.843 -2.174,-2.147 -21.241,-44.869c-7.874,-17.644 -22.745,-49.954 -24.74,-54.289c-3.8,-8.258 -5.082,-14.855 -9.428,-13.121c-107.499,42.901 -107.455,42.897 -115.122,46.222c-7.991,3.465 -0.426,-4.06 20.275,-37.821c19.894,-32.443 41.128,-63.984 40.708,-66.265c-0.631,-3.427 -72.689,-28.227 -75.872,-32.259c-1.918,-2.431 -0.671,-2.999 -21.187,-53.882c-21.444,-53.184 -38.423,-96.872 -38.466,-97.167c-0.368,-2.567 7.943,0.234 50.834,11.478c2.451,0.642 26.947,7.064 30.639,8.002c7.127,1.81 85.511,21.716 88.832,23.615c1.87,1.069 1.474,1.576 50.397,109.154c0.438,0.009 0.603,0.793 1.041,0.802c0.684,0.015 1.035,-2.946 1.067,-3.215Z" style="fill:#df31e7;"/><path d="M199.007,664.925c-0.337,-1.779 -1.629,-2.3 1.447,-5.252c22.863,-21.946 22.834,-21.868 24.813,-23.776c4.145,-3.994 29.792,-28.946 32.381,-31.464c7.378,-7.178 65.208,-63.439 92.578,-89.368c45.597,-43.198 46.061,-48.315 50.814,-43.844c1.943,1.827 1.689,2.069 23.998,23.14c29.99,28.327 64.609,61.186 64.72,61.351c1.397,2.078 -2.094,4.862 -32.639,34.304c-41.223,39.778 -82.446,79.557 -123.669,119.335c-66.605,64.232 -66.832,64.469 -68.025,64.302c-1.856,-0.26 -42.389,-68.505 -66.417,-108.727Z" style="fill:#f137ec;"/><path d="M840.657,560.85c0.203,78.991 -0.329,79.175 -1.89,81.805c-11.786,19.865 -77.577,128.898 -79.177,130.31c-2.598,2.292 -2.896,-0.59 -83.182,-77.289c-59.299,-56.65 -58.714,-57.154 -117.947,-113.966c-0.189,-0.181 -3.789,-2.634 -2.703,-4.151c0.392,-0.548 86.582,-6.611 140.174,-11.47c8.618,-0.781 128.168,-10.19 138.872,-11.218c6.994,-0.672 5.523,2.375 5.851,5.979Z" style="fill:#f234ef;"/><path d="M830.608,526.938c-23.221,1.997 -289.766,24.919 -290.311,24.39c-1.806,-1.753 0.359,-2.055 44.969,-44.237c70.554,-66.714 176.939,-170.112 178.849,-170.683c1.847,-0.552 1.607,0.62 21.225,26.895c8.608,11.529 53.645,72.431 54.519,74.198c1.339,2.705 0.622,2.905 0.884,74.762c0.004,0.999 0.042,11.412 -0.359,12.488c-1.012,2.72 -1.964,1.376 -9.776,2.188Z" style="fill:#f136ed;"/><path d="M266.596,611.951c42.564,-41.229 85.129,-82.458 127.693,-123.687c3.729,-3.61 4.761,-3.077 8.482,0.582c4.488,4.414 4.44,4.44 4.834,4.818c31.639,30.313 31.92,29.86 63.523,60.134c4.22,4.042 1.868,5.185 -4.399,11.108c-49.494,46.777 -158.099,152.345 -171.789,165.653c-25.201,24.497 -25.355,25.968 -28.088,24.743c-1.096,-0.491 -21.208,-34.835 -23,-37.895c-29.732,-50.771 -32.611,-51.443 -29.397,-54.895c3.96,-4.252 4.025,-4.175 52.142,-50.561Z" style="fill:#190d32;"/><path d="M708.431,576.927c32.691,-2.42 32.57,-3.131 65.261,-5.421c25.655,-1.798 53.471,-5.516 54.905,-3.281c0.903,1.407 0.875,66.044 -0.353,69.152c-2.08,5.259 -14.691,25.227 -16.047,27.373c-28.227,44.693 -27.216,45.268 -29.733,49.11c-25.33,38.667 -22.906,42.156 -26.821,41.574c-2.357,-0.35 -120.131,-115.056 -130.493,-125.148c-41.614,-40.53 -46.717,-42.847 -41.931,-43.543c0.278,-0.04 115.196,-9.032 125.213,-9.816Z" style="fill:#440b5c;"/><path d="M195.064,607.868c-0.074,-10.413 -0.302,-163.401 0.087,-164.944c0.968,-3.841 29.947,-42.447 32.659,-46.06c16.855,-22.455 55.466,-77.826 58.558,-78.866c2.181,-0.734 29.007,-0.561 29.241,-0.331c2.07,2.029 0.047,2.278 -8.065,14.332c-2.873,4.27 -24.634,36.608 -35.805,53.445c-8.946,13.484 -17.951,21.677 -7.658,18.424c7.518,-2.376 44.38,-11.607 54.069,-14.213c27.746,-7.464 28.649,-8.154 32.866,-4.536c6.328,5.429 29.526,27.916 32.063,30.375c0.465,0.45 5.071,4.916 4.754,6.546c-0.169,0.868 -0.266,0.95 -125.01,122.268c-29.912,29.091 -29.931,28.912 -57.022,55.454c-3.216,3.151 -3.299,2.971 -6.47,6.116c-0.834,0.827 -0.355,2.18 -4.267,1.99Z" style="fill:#013665;"/><path d="M696.013,526.758c-9.894,0.872 -121.006,10.664 -123.698,10.639c-4.331,-0.04 0.127,-2.677 38,-38.565c38.579,-36.557 134.511,-128.215 149.682,-143.321c5.815,-5.79 5.543,2.142 64.266,79.944c5.825,7.717 4.639,8.439 4.803,33.752c0.023,3.549 0.276,42.735 -0.056,44.37c-0.682,3.355 -17.214,2.633 -76.115,8.346c-11.58,1.123 -52.331,4.462 -56.883,4.835Z" style="fill:#1b0c33;"/><path d="M470.021,400.995c8.768,20.482 36.704,80.817 39.553,87.799c0.158,0.388 2.507,6.142 3.866,3.538c1.902,-3.646 1.472,-3.799 20.988,-46.929c39.242,-86.725 44.88,-101.613 47.675,-101.274c2.288,0.278 63.833,24.47 69.365,26.644c5.893,2.317 12.062,4.325 12.266,5.49c0.402,2.3 -0.52,2.089 -20.41,20.868c-6.685,6.312 -68.448,64.625 -83.477,78.985c-3.685,3.521 -44.859,42.86 -46.237,43.822c-2.409,1.682 -3.113,0.484 -28.21,-23.517c-67.957,-64.989 -124.093,-116.235 -123.997,-118.854c0.055,-1.503 0.726,-1.294 45.666,-19.605c34.382,-14.009 34.977,-15.61 37.273,-13.425c0.012,0.011 0.003,-0.001 25.679,56.459Z" style="fill:#013661;"/><path d="M562.745,67.765c18.222,16.123 30.352,22.582 27.215,26.2c-3.494,4.029 -3.728,3.693 -44.94,49.238c-3.397,3.754 -5.683,16.322 -22.291,95.41l-0.087,1.393c0.617,4.329 2.457,2.533 6.649,1.348c61.3,-17.337 60.883,-18.349 125.058,-37.251c15.597,-4.594 15.201,-5.741 16.592,-5.978c0.513,-0.087 0.897,0.642 1.418,0.656c0.681,0.018 2.56,-0.572 2.777,-0.641c0.309,-0.097 0.202,-0.217 2.762,-2.962c6.259,-0.465 6.426,-0.973 6.665,-0.495c1.122,2.242 -2.532,3.26 -9.639,7.576c-64.779,39.335 -65.171,38.902 -67.848,41.977c-7.56,-1.146 -43.377,2.004 -59.653,1.915c-0.398,-0.002 -11.693,-0.064 -3.886,3.099c42.828,17.353 52.607,27.668 62.282,35.118c17.527,13.497 31.704,24.57 34.453,26.717c7.48,5.842 8.811,6.109 9.018,6.378c0.371,0.482 0.201,1.213 0.45,1.769c0.23,0.514 1.149,0.856 0.965,1.389c-0.29,0.841 -1.749,0.882 -2.039,1.723c-5.107,-2.11 -86.915,-34.63 -88.765,-34.581c-3.982,0.107 -2.795,2.296 -40.735,85.415c-0.374,0.82 -2.702,5.92 -4.543,10.315c-0.602,-0.745 -3.597,-0.997 -2.962,-5.993c0.384,-3.024 0.498,-123.541 0.201,-123.91c-1.667,-2.068 -7.239,3.302 -8.058,3.925c-31.691,24.122 -34.664,27.485 -37.209,30.364c-0.551,-0.15 -0.662,-1.478 -3.819,-0.272c-7.404,2.83 -78.803,31.262 -87.423,34.914c-0.221,-0.979 -1.331,-1.601 -1.551,-2.579c-0.021,-0.094 0.896,-1.472 1.548,-1.942c25.442,-18.377 45.681,-36.275 58.508,-45.507c12.058,-8.679 50.345,-14.4 59.367,-18.538c10.235,-4.695 11.814,-1.694 14.935,-5.73c1.704,-2.203 1.111,-2.526 16.828,-103.99c1.312,-8.47 2.551,-8.058 15.31,-23.691c16.695,-20.457 16.721,-20.347 18.16,-22.128c1.56,-1.931 3.298,-2.015 0.862,-24.982c-0.533,-5.021 1.057,-4.57 3.425,-5.667Z" style="fill:#0f0c31;"/><path d="M335.617,201.465c-12.07,-27.593 -41.211,-103.736 -44.361,-109.896c-1.442,-2.821 -4.042,-4.339 -0.837,-4.39c1.326,-0.021 0.858,0.766 40.006,32.492c7.893,6.396 85.345,69.166 97.94,80.835c-0.869,0.459 -0.927,1.879 -1.796,2.338c-0.437,0.231 -0.82,-0.629 -1.31,-0.697c-0.491,-0.068 -0.961,0.255 -1.453,0.315c-7.599,0.924 -75.405,-3.705 -81.955,-4.152c-3.835,-0.262 -4.155,-0.132 -6.234,3.156Z" style="fill:#650c83;"/><path d="M562.745,67.765c-2.368,1.097 -3.958,0.646 -3.425,5.667c2.436,22.967 0.698,23.051 -0.862,24.982c-1.439,1.781 -1.465,1.671 -18.16,22.128c-12.759,15.634 -13.998,15.222 -15.31,23.691c-15.717,101.463 -15.124,101.787 -16.828,103.99c-3.121,4.036 -4.7,1.036 -14.935,5.73c-9.022,4.138 -47.308,9.859 -59.367,18.538c-12.827,9.232 -33.066,27.13 -58.508,45.507c-0.652,0.471 -1.57,1.848 -1.548,1.942c0.221,0.979 1.331,1.601 1.551,2.579c-7.88,3.542 -8.499,2.993 -8.554,2.286c-0.134,-1.706 12.126,-19.575 39.877,-64.197c0.397,-0.639 3.239,-5.393 4.193,-6.905c3.957,-6.27 4.086,-7.393 11.542,-6.997c26.633,1.415 70.838,4.799 71.953,4.043c2.115,-1.434 16.262,-120.001 18.875,-124.197c2.235,-3.59 44.085,-59.733 45.136,-60.206c2.375,-1.066 2.4,-0.204 4.37,1.416Z" style="fill:#6b108f;"/><path d="M423.844,112.025c-3.063,3.654 -2.696,3.932 -2.16,8.675c0.54,4.786 6.037,53.501 7.196,59.767c0.17,0.918 1.072,1.78 0.816,2.678c-0.241,0.846 -1.81,0.816 -2.051,1.662c-7.729,-5.548 -65.103,-53.272 -71.8,-58.713c-50.16,-40.752 -50.234,-40.584 -54.521,-44.211c-0.65,-0.55 -0.792,-0.563 -0.435,-1.303c0.734,-1.521 1.242,-0.499 14.439,3.146c9.204,2.542 82.432,21.099 108.516,28.299Z" style="fill:#680b85;"/><path d="M368.18,837.869c19.303,0.14 40.14,-0.395 41.838,0.551c0.791,0.441 1.906,7.866 2.01,8.562c4.945,32.945 24.508,46.525 22.678,49.85c-0.818,1.485 -28.419,29.159 -28.859,29.407c-1.804,1.019 -3.838,1.901 -17.415,-19.172c-3.005,-4.664 -20.663,-32.073 -22.113,-65.728c-0.154,-3.569 1.585,-3.187 1.86,-3.469Z" style="fill:#092a55;"/><path d="M615.308,923.415c-9.336,-9.736 -9.363,-9.614 -23.442,-23.774c-6.046,-6.081 1.012,-6.36 10.235,-23.288c9.736,-17.868 10.893,-35.571 11.002,-36.223c0.476,-2.857 6.446,-2.12 6.512,-2.119c35.001,0.204 36.486,-0.43 37.48,0.558c1.909,1.896 -1.586,46.328 -32.612,84.182c-3.663,4.469 -4.951,4.505 -9.176,0.664Z" style="fill:#3e0f5c;"/><path d="M466.595,287.879c2.545,-2.878 5.518,-6.241 37.209,-30.364c0.819,-0.624 6.391,-5.993 8.058,-3.925c0.297,0.369 0.183,120.886 -0.201,123.91c-0.634,4.997 2.361,5.248 2.962,5.993c-0.632,0.933 -1.264,1.866 -1.897,2.798l-1.686,-0.217c-5.64,-13.153 -42.507,-92.523 -44.446,-98.195Z" style="fill:#5f138c;"/><path d="M504.523,813.824c5.134,-3.879 5.032,-3.885 9.985,-8.015c27.005,-22.515 70.346,-55.998 86.905,-73.043c1.772,-1.824 3.435,-0.246 1.796,1.757c-29.407,35.94 -75.52,104.645 -80.609,108.521c-0.5,0.381 -36.435,15.428 -37.809,15.114c-1.997,-0.457 -0.512,-1.251 0.836,-4.5c10.511,-25.325 8.794,-31.369 18.894,-39.835Z" style="fill:#ed34e9;"/><path d="M733.326,302.486c-17.117,26.372 -17.607,33.246 -21.436,27.383c-2.054,-3.145 -34.15,-56.054 -37.448,-61.003c-0.196,-0.294 -2.989,-4.484 0.524,-4.391c16.109,0.424 79.347,-1 80.659,0.641c1.086,1.359 -0.055,1.456 -18.58,31.552c-0.29,0.47 -0.275,0.431 -3.718,5.819Z" style="fill:#00416f;"/><path d="M335.617,201.465c2.079,-3.287 2.399,-3.417 6.234,-3.156c6.55,0.447 74.356,5.076 81.955,4.152c0.492,-0.06 0.962,-0.383 1.453,-0.315c0.49,0.068 0.873,0.928 1.31,0.697c0.869,-0.459 0.927,-1.879 1.796,-2.338c8.275,6.132 26.906,21.89 43.142,35.129c5.132,4.184 -2.737,1.984 -46.328,0.31c-16.333,-0.627 -15.849,-2.815 -36.229,-10.826c-30.133,-11.845 -33.101,-13.063 -35.963,-14.239c-12.458,-5.116 -14.682,-4.106 -17.371,-9.416Z" style="fill:#2b0b40;"/><path d="M423.844,112.025c4.402,1.358 5.698,0.164 9.164,7.492c6.688,14.14 39.329,85.91 50.892,109.439c3.219,6.549 -4.577,-0.62 -4.868,-0.888c-8.02,-7.376 -45.846,-38.164 -51.387,-43.262c0.241,-0.846 1.81,-0.816 2.051,-1.662c0.255,-0.898 -0.647,-1.76 -0.816,-2.678c-1.158,-6.266 -6.656,-54.982 -7.196,-59.767c-0.535,-4.743 -0.903,-5.021 2.16,-8.675Z" style="fill:#330943;"/><path d="M677.899,195.179c-2.56,2.745 -2.453,2.865 -2.762,2.962c-0.218,0.068 -2.097,0.658 -2.777,0.641c-0.52,-0.013 -0.904,-0.743 -1.418,-0.656c-1.391,0.236 -0.995,1.383 -16.592,5.978c-64.175,18.903 -63.758,19.914 -125.058,37.251c-4.192,1.186 -6.032,2.982 -6.649,-1.348l0.528,-0.902c23.945,-15.112 63.404,-40.688 68.731,-43.264c5.585,-2.701 79.119,-0.837 85.997,-0.662Z" style="fill:#5f0e88;"/><path d="M607.077,244.237c13.551,20.277 44.369,71.335 47.633,76.158c2.267,3.35 4.602,3.838 2.074,5.125c-0.569,0.29 -7.485,-2.885 -8.119,-3.176c0.29,-0.841 1.749,-0.882 2.039,-1.723c0.184,-0.533 -0.734,-0.874 -0.965,-1.389c-0.249,-0.555 -0.079,-1.286 -0.45,-1.769c-0.206,-0.269 -1.538,-0.536 -9.018,-6.378c-2.749,-2.147 -16.927,-13.219 -34.453,-26.717c-9.675,-7.45 -19.453,-17.765 -62.282,-35.118c-7.807,-3.163 3.489,-3.102 3.886,-3.099c16.276,0.089 52.093,-3.061 59.653,-1.915Z" style="fill:#591489;"/><path d="M500.315,728.678c-5.337,1.838 -24.083,3.139 -46.95,18.858c-2.339,1.607 -3.175,0.843 -4.096,3.565c-0.173,0.512 -0.708,1.284 -0.781,1.389c-1.485,2.143 -2.089,0.901 -2.699,1.163c0.056,-0.389 0.528,-0.634 0.584,-1.023c0.425,-2.937 -16.3,-20.667 -18.015,-23.93c-2.396,-4.559 23.43,-17.836 28.912,-20.333c17.535,-7.987 36.317,-10.276 37.36,-10.158c4.602,0.521 3.159,20.159 5.684,30.469Z" style="fill:#023965;"/><path d="M592.98,768.309c19.414,-14.339 20.616,-18.398 24.004,-19.348c7.491,-2.101 30.042,53.884 28.147,64.731c-0.308,1.76 -0.82,2.41 -30.778,5.715c-0.656,-1.104 -1.538,-0.612 -1.81,-3.044c-0.063,-0.567 -0.992,-6.679 -1.058,-6.98c-5.269,-24.17 -17.259,-39.07 -18.505,-41.074Z" style="fill:#460d63;"/><path d="M430.791,768.374c-1.43,8.438 -12.89,10.812 -19.247,46.638c-0.137,0.77 -0.272,0.658 -0.357,1.364c-0.228,1.897 -0.803,1.575 -1.6,3.14c-23.932,-3.727 -31.474,-1.848 -30.567,-7.357c5.17,-31.417 15.789,-48.534 24.654,-60.217c5.004,-6.594 9.95,4.784 27.118,16.431Z" style="fill:#033663;"/><path d="M597.251,724.507c-0.582,0.591 -0.685,1.55 -1.266,2.141c-0.35,0.356 -0.901,0.451 -1.389,0.557c-3.156,0.689 -2.508,1.673 -5.1,3.698c-15.481,12.091 -17.715,17.229 -23.043,13.83c-22.946,-14.64 -41.02,-14.796 -41.289,-14.89c-0.572,-0.198 -0.89,-0.878 -1.462,-1.077c3.38,-26.979 2.976,-27.071 3.838,-29.27c1.499,-3.82 30.122,3.317 50.263,14.359c14.458,7.926 13.282,11.489 19.448,10.652Z" style="fill:#490f67;"/><path d="M500.315,728.678c-2.525,-10.309 -1.082,-29.948 -5.684,-30.469c-1.044,-0.118 -19.825,2.171 -37.36,10.158c-5.482,2.497 -31.308,15.773 -28.912,20.333c1.715,3.262 18.439,20.993 18.015,23.93c-0.056,0.389 -0.528,0.634 -0.584,1.023c-5.369,1.044 -4.714,-1.528 -21.039,-17.379c-9.726,-9.444 -13.22,-11.796 -10.628,-14.288c29.35,-28.227 90.172,-42.812 91.175,-34.688c0.027,0.216 0.019,39.891 -0.047,40.077c-1.047,2.935 -1.926,2.057 -4.935,1.304Z" style="fill:#21ecf6;"/><path d="M430.791,768.374c-17.168,-11.647 -22.114,-23.025 -27.118,-16.431c-8.865,11.683 -19.484,28.8 -24.654,60.217c-0.907,5.509 6.635,3.629 30.567,7.357c3.204,6.153 -2.079,4.899 -17.733,4.876c-23.629,-0.035 -25.627,0.35 -25.883,-2.53c-0.775,-8.701 6.396,-53.896 34.485,-85.781c3.291,-3.736 4.171,-0.226 26.413,21.662c2.063,2.03 10.148,7.476 3.922,10.631Z" style="fill:#22eef8;"/><path d="M592.98,768.309c-0.752,-1.247 -1.988,-1.809 1.798,-5.956c10.27,-11.249 9.706,-11.641 20.206,-22.76c4.476,-4.74 5.885,-7.284 9.94,-2.198c20.523,25.746 30.157,52.543 32.886,81.783c0.611,6.544 -2.541,4.969 -9.054,5.038c-2.443,0.026 -20.778,0.219 -30.543,0.156c-7.682,-0.05 -4.343,-3.669 -3.859,-4.965c29.958,-3.305 30.47,-3.955 30.778,-5.715c1.895,-10.846 -20.656,-66.832 -28.147,-64.731c-3.387,0.95 -4.59,5.009 -24.004,19.348Z" style="fill:#e838e7;"/><path d="M597.251,724.507c-6.166,0.838 -4.99,-2.725 -19.448,-10.652c-20.141,-11.042 -48.764,-18.179 -50.263,-14.359c-0.863,2.198 -0.458,2.29 -3.838,29.27c-6.802,1.182 -4.699,-2.644 -4.73,-9.584c-0.147,-32.74 0.171,-33.406 1.844,-33.84c0.147,-0.038 24.992,-0.484 54.551,13.936c2.463,1.201 29.899,14.586 27.798,20.008c-0.228,0.588 -0.333,0.86 -5.914,5.221Z" style="fill:#eb35ea;"/><path d="M687.169,789.984c0.028,-22.95 -1.037,-30.126 3.509,-25.337c5.212,5.491 27.743,25.694 27.715,28.117c-0.03,2.584 -21.572,13.683 -27.789,18.425c-4.574,3.489 -3.39,-4.641 -3.436,-21.205Z" style="fill:#02518c;"/><path d="M337.072,787.219c-0.089,20.486 0.401,25.669 -2.065,24.667c-0.106,-0.043 -25.38,-15.405 -27.586,-16.746c-4.853,-2.949 1.326,-6.233 9.041,-13.881c1.496,-1.483 18.669,-18.507 18.725,-18.506c2.689,0.047 1.766,4.444 1.761,7.783c-0.019,12.793 0.075,15.349 0.124,16.683Z" style="fill:#025390;"/><path d="M490.126,210.809c-0.032,0.269 -0.383,3.23 -1.067,3.215c-0.438,-0.009 -0.603,-0.793 -1.041,-0.802c0.703,-0.804 1.405,-1.609 2.108,-2.413Z" style="fill:#b90fb6;"/><path d="M522.729,238.614l0.441,0.491l-0.528,0.902l0.087,-1.393Z" style="fill:#451b70;"/></g></svg>